Coordinates
version=1
nRows=19
nColumns=34
inDegrees=yes

Units are S.I. units (second, meters, Newtons, ...)
If the header above contains a line with 'inDegrees', this indicates whether rotational values are in degrees (yes) or radians (no).

endheader
time	pelvis_tilt	pelvis_list	pelvis_rotation	pelvis_tx	pelvis_ty	pelvis_tz	hip_flexion_r	hip_adduction_r	hip_rotation_r	knee_angle_r	ankle_angle_r	subtalar_angle_r	mtp_angle_r	hip_flexion_l	hip_adduction_l	hip_rotation_l	knee_angle_l	ankle_angle_l	subtalar_angle_l	mtp_angle_l	lumbar_extension	lumbar_bending	lumbar_rotation	arm_flex_r	arm_add_r	arm_rot_r	elbow_flex_r	pro_sup_r	arm_flex_l	arm_add_l	arm_rot_l	elbow_flex_l	pro_sup_l
      0.40000000	     -2.43475196	     -5.04822152	   -175.39769718	      1.50492388	      0.88042715	     -0.33821685	     27.06050125	     -6.55011516	      0.30832164	      3.34349336	     -0.09425320	      4.99886012	      0.00000000	    -16.54461202	      7.69633068	     -3.68889188	     11.37851085	     24.25585255	      1.21264964	      0.00000000	    -13.05630649	     -8.27841019	    -15.10550815	      9.06416380	    -17.22169836	     82.15089370	     15.27471696	     44.71248181	     44.47703990	    -37.83905790	     42.57646147	     40.87551677	     76.54221024
      0.41666670	     -2.23528056	     -4.88818669	   -175.19750116	      1.47827685	      0.87351789	     -0.34011093	     27.92071262	     -6.36096601	      0.81393505	      3.75638906	      0.44945739	      4.67033738	      0.00000000	    -17.82553202	      7.19526340	     -3.56255223	     12.43019849	     25.03622367	      1.09604631	      0.00000000	    -13.00887106	     -8.49600820	    -15.39061497	      7.13909569	    -17.29174177	     78.41288851	     14.65179630	     48.49366697	     50.24161546	    -37.17706729	     50.65263926	     37.56341666	     62.50101680
      0.43333330	     -2.43653587	     -4.53274845	   -175.00529062	      1.45092566	      0.86738930	     -0.34231827	     28.19631880	     -5.83244561	      1.85203257	      5.37837548	      0.54483122	      2.86052875	      0.00000000	    -19.32046273	      6.32319818	     -3.50128014	     13.87813438	     25.17967225	      0.94842585	      0.00000000	    -13.32354064	     -8.34255578	    -16.68545554	      6.42026954	    -17.25178206	     78.43690926	     13.89614328	     48.88721026	     52.29031381	    -37.19185706	     48.89926634	     36.48451120	     61.52144267
      0.45000000	     -2.37504846	     -4.11802312	   -174.54366526	      1.42263211	      0.86133255	     -0.34443408	     28.74285042	     -5.28018664	      2.62394484	      8.27956505	     -0.01886126	      0.71728660	      0.00000000	    -20.16700191	      5.19853099	     -3.53186027	     16.01992168	     24.55866660	      0.47323349	      0.00000000	    -13.10231201	     -8.13153296	    -17.69953711	      5.41121967	    -17.32651346	     78.36915364	     13.15518014	     49.27372728	     53.50117098	    -36.93744871	     47.33348511	     35.34818422	     60.60003152
      0.46666670	     -2.36969075	     -3.58367988	   -173.99903515	      1.39346970	      0.85604932	     -0.34676463	     29.14366720	     -4.51035106	      3.15433465	     11.93863263	     -1.74065994	     -1.87345778	      0.00000000	    -20.47124435	      3.69196039	     -4.20371386	     19.22752657	     22.24802213	     -0.90266565	      0.00000000	    -12.73232778	     -7.76731237	    -18.01247564	      4.11776923	    -17.36818930	     78.01339583	     12.24521974	     49.70991092	     54.03282477	    -36.20757561	     45.35385762	     34.95600417	     59.66590586
      0.48333330	     -2.50552382	     -3.19608444	   -173.48301990	      1.36393128	      0.85151388	     -0.34957869	     29.52203554	     -3.73691434	      3.59788734	     16.35706248	     -3.14091521	     -4.38270351	      0.00000000	    -20.02113135	      2.08202514	     -5.13843720	     23.91888128	     18.54762227	     -3.34136053	      0.00000000	    -12.57709874	     -7.60947060	    -18.17986791	      3.03924836	    -17.01483915	     76.64908599	     11.04228318	     50.42926789	     54.07947360	    -35.49296971	     41.78532481	     35.54682997	     58.60115435
      0.50000000	     -2.77961620	     -2.68063482	   -172.80966867	      1.33349311	      0.84903522	     -0.35162230	     29.63621038	     -2.95711241	      3.22582167	     21.03470970	     -3.46033621	     -6.34628373	      0.00000000	    -18.78353753	      0.08969529	     -6.11369218	     29.78977302	     12.65595490	     -6.04427684	      0.00000000	    -12.42240137	     -7.11313626	    -18.61821272	      2.26073791	    -16.54312152	     73.39299624	      9.29228092	     52.01037907	     52.41518833	    -34.64311926	     36.41253700	     37.42495550	     58.08056879
      0.51666670	     -3.16835839	     -1.95775473	   -172.53957358	      1.30378674	      0.84868871	     -0.35435275	     29.33610948	     -1.86765054	      2.35673627	     25.06043775	     -2.40004847	     -7.23042306	      0.00000000	    -16.47082935	     -2.18263873	     -7.25333526	     37.18661279	      6.01641085	     -8.98445119	      0.00000000	    -12.28239065	     -6.35312740	    -18.58547909	      2.15546319	    -15.64285781	     67.08883020	      7.07705314	     55.85596260	     49.21246596	    -33.86911491	     29.48392902	     40.37694405	     59.72695196
      0.53333330	     -3.29094365	     -1.33443138	   -172.53178071	      1.27520307	      0.84985548	     -0.35792282	     29.08027659	     -0.73233161	      1.89260909	     28.59710727	     -0.41048478	     -8.91773965	      0.00000000	    -13.18486382	     -4.29723042	     -8.29891612	     44.99468358	     -0.02064372	    -11.13003478	      0.00000000	    -11.72772390	     -5.88723555	    -17.49866527	      1.78511739	    -14.37527922	     49.43200925	      4.67507914	     78.58191276	     45.18273057	    -32.77241008	     23.19626795	     43.41121613	     72.43148641
      0.55000000	     -3.87626500	     -0.66873633	   -172.77431776	      1.24897372	      0.85512683	     -0.36090506	     27.37590873	      0.17095859	      0.22060403	     30.20998339	      3.03255274	     -7.91093585	      0.00000000	    -10.19388775	     -6.22105271	     -9.37410134	     52.01553650	     -5.24831362	    -14.24681638	      0.00000000	    -11.66484315	     -5.30517135	    -15.17823139	      1.82001843	    -13.89905550	     48.68535683	      3.83676184	     79.08913130	     42.09385403	    -31.01508184	     22.16805603	     43.52206853	     71.96905444
      0.56666670	     -4.18969456	      0.08592903	   -173.19052863	      1.22488810	      0.86355583	     -0.36306366	     25.24110564	      1.19415074	     -1.11027758	     30.29679227	      5.86755398	     -7.04254198	      0.00000000	     -6.91714980	     -7.97968849	    -10.67970063	     57.94151284	     -8.32098315	    -17.60924187	      0.00000000	    -11.23571641	     -4.47481974	    -13.48890932	      2.75224283	    -13.51398891	     46.99408434	      3.58913707	     79.29876054	     37.67884226	    -30.04543021	     20.79717573	     43.33176341	     71.69366997
      0.58333330	     -4.44943741	      0.60133042	   -173.79246940	      1.20224529	      0.87309081	     -0.36409706	     22.72639329	      1.97700190	     -2.10907053	     29.41435423	      8.42501918	     -5.62792201	      0.00000000	     -3.82371924	     -9.22002640	    -12.30837480	     62.33791251	     -9.32854738	    -20.58568194	      0.00000000	    -10.95516677	     -3.86318979	    -12.29526381	      4.52002438	    -13.19297479	     43.78934373	      3.73202452	     79.42266585	     32.94910508	    -29.28758464	     18.81006916	     43.00898166	     71.53157512
      0.60000000	     -4.76653286	      1.11341213	   -174.47304528	      1.17981644	      0.87988175	     -0.36439725	     19.93936498	      2.90687028	     -2.26356636	     27.97984691	      9.67740226	     -5.17385683	      0.00000000	     -0.91039482	    -10.28903998	    -14.02476057	     65.48937148	     -8.36130654	    -22.23102228	      0.00000000	    -10.85676048	     -3.35855829	    -10.65761349	      6.27455803	    -12.88908092	     43.10654979	      4.46397783	     79.37754448	     29.44236409	    -28.36917993	     19.47534393	     41.95334059	     71.61045690
      0.61666670	     -4.65000502	      1.34465661	   -175.02140184	      1.15764378	      0.88468229	     -0.36332093	     17.68348718	      3.23467758	     -2.64741206	     26.61019873	     11.20257431	     -3.73661617	      0.00000000	      2.50219172	    -10.59118607	    -15.32324431	     67.54001944	     -6.12842303	    -22.93466084	      0.00000000	    -10.22885087	     -3.15832510	     -9.87094057	      8.43600901	    -12.72042504	     41.05330985	      5.89130051	     79.03829045	     25.87457882	    -27.52498425	     20.23664851	     40.16071191	     71.65901245
      0.63333330	     -4.56271626	      1.65504119	   -175.92927434	      1.13761812	      0.88884101	     -0.36231893	     15.52615815	      3.77849539	     -2.25307542	     25.16259020	     11.71364697	     -2.70656117	      0.00000000	      5.79563390	    -10.81867549	    -16.80483454	     68.59413066	     -3.30040252	    -22.29260664	      0.00000000	     -9.76951497	     -2.87183663	     -8.66105634	     10.90748968	    -12.71278349	     38.94718131	      7.65218557	     78.63125920	     22.79245692	    -26.44857805	     21.45296040	     38.37675009	     71.66255992
      0.65000000	     -4.33850943	      1.97541202	   -177.06092602	      1.12005913	      0.89259386	     -0.36128651	     13.62851372	      4.42195104	     -1.01153685	     23.53622887	     11.00887869	     -1.64050410	      0.00000000	      9.26995387	    -11.09960413	    -18.44549061	     68.96357923	     -0.16030897	    -20.59280863	      0.00000000	     -9.33309006	     -2.73831221	     -6.12719744	     12.36122341	    -12.98752942	     32.82804221	     10.75683660	     77.96918094	     21.24450616	    -24.58257952	     24.28901202	     35.99677515	     71.19530125
      0.66666670	     -3.93536417	      1.98765277	   -178.02411320	      1.10351677	      0.89417561	     -0.35896560	     12.01785018	      4.58769499	      0.19759456	     21.68026324	      9.25230776	     -0.09603097	      0.00000000	     13.10202260	    -10.80042015	    -19.59667960	     68.60525697	      1.47468774	    -19.85359372	      0.00000000	     -8.65529728	     -2.58550734	     -5.73664858	     15.58609461	    -12.87398981	     31.96914789	     12.81653971	     78.05561091	     17.94338654	    -23.74844162	     25.61245731	     34.00728161	     71.13837708
      0.68333330	     -3.32323500	      2.06132542	   -179.04017134	      1.08578567	      0.89497402	     -0.35654665	     10.64046333	      4.82536790	      1.71877838	     19.55876398	      6.85653825	      1.45817046	      0.00000000	     16.97342285	    -10.66870088	    -20.74211228	     67.42983150	      3.18574690	    -18.44246994	      0.00000000	     -7.66252759	     -2.26905295	     -4.92026672	     18.30472426	    -12.78897807	     31.10898450	     15.44208727	     78.28638879	     14.77947012	    -22.45411264	     26.77646824	     32.08224076	     70.98753385
      0.70000000	     -2.90434993	      2.39473958	   -180.10282227	      1.06661125	      0.89821588	     -0.35454387	      8.94361118	      5.25065412	      3.08074201	     17.46681644	      5.39955947	      2.53923008	      0.00000000	     20.22870599	    -10.79037218	    -21.65899815	     64.99753926	      4.86406673	    -16.97659256	      0.00000000	     -6.95563192	     -1.59476033	     -3.91917503	     20.81267120	    -12.80379265	     30.30892660	     19.01109144	     78.75891712	     11.76545676	    -20.68600307	     27.64724587	     29.91393181	     70.71507394
